# xmcd
#
# Track frame offsets: 
#        150
#        21138
#        44813
#        59827
#        79671
#        97016
#        114934
#        139307
#        168589
#        186479
#        205261
#        224664
#        250058
#
# Disc length: 3560 seconds
#
# Revision: 0
# Processed by: cddbd v1.5.2PL0 Copyright (c) Steve Scherf et al.
# Submitted via: ExactAudioCopy v1.0b3
#
DISCID=cc0de60d
DTITLE=John F. Klaver band - The Edge
DYEAR=2014
DGENRE=Blues
TTITLE0=You make me feel so alive
TTITLE1=Just for Kicks
TTITLE2=Saw me
TTITLE3=When everything falls
TTITLE4=Micha ain't no bitch
TTITLE5=Skip a beat
TTITLE6=Make it so
TTITLE7=I still believe
TTITLE8=32-20 Blues
TTITLE9=Kempner woman
TTITLE10=Maydell
TTITLE11=Heartful of blues
TTITLE12=The Edge
EXTD=
EXTT0=
EXTT1=
EXTT2=
EXTT3=
EXTT4=
EXTT5=
EXTT6=
EXTT7=
EXTT8=
EXTT9=
EXTT10=
EXTT11=
EXTT12=
PLAYORDER=
